<svg id="Capa_1" enable-background="new 0 0 512 512" height="512" viewBox="0 0 512 512" width="512" xmlns="http://www.w3.org/2000/svg"><g><circle cx="256" cy="256" fill="#6aa8ff" r="256"/><path d="m350.743 110.419h-29.099l54.657 54.657-13.064 1.357-38.287-38.287-139.885 135.848 29.408 29.408-6.858 4.132-75.668-75.668.232 28.867-29.331.232 57.307 57.307-15.72-1.295 84.922 84.922 26.643 58.514 55.529 55.529c114.684-25.366 200.471-127.628 200.471-249.942 0-4.629-.13-9.227-.373-13.795l-160.884-160.884z" fill="#4894ff"/><g><path d="m256 430.413-26.026-15.956-29.282-40.455 55.308-10 25.072 31.838z" fill="#fd5"/><path d="m256 430.413v-66.411l55.308 10-29.282 40.455z" fill="#fc0"/></g><path d="m256 450.413v-35.956h-26.026z" fill="#dc45c6"/><path d="m256 450.413v-35.956h26.026z" fill="#d000b2"/><path d="m304.755 197.096-48.755-97.509c-53.853 0-97.51 43.656-97.51 97.51 0 33.314 16.71 62.72 42.202 80.309v49.516h55.308z" fill="#fff"/><path d="m353.51 197.096c0-53.853-43.656-97.51-97.51-97.51v227.335h55.308v-49.516c25.491-17.589 42.202-46.995 42.202-80.309z" fill="#eeeef0"/><g><path d="m256 374.002h-55.308v-47.081h55.308l43.863 23.541z" fill="#dc45c6"/><path d="m256 326.921h55.308v47.081h-55.308z" fill="#d000b2"/></g><g><path d="m256 333.41-63.721-10v-19.971h63.721l50.534 9.985z" fill="#00347b"/><path d="m319.721 323.41-63.721 10v-29.971h63.721z" fill="#002659"/></g><g><path d="m256 343.38h-63.721v-19.97h63.721l50.534 9.985z" fill="#00429c"/><path d="m256 323.41h63.721v19.97h-63.721z" fill="#00347b"/></g><g fill="#fc0"><path d="m356.916 104.247 22.926 6.173-22.926 6.172-6.173 22.926-6.173-22.926-22.926-6.173 22.926-6.172 6.173-22.926z"/><path d="m383.855 162.823 13.405 3.609-13.405 3.609-3.609 13.405-3.609-13.405-13.405-3.609 13.405-3.609 3.609-13.405z"/><path d="m138.12 244.791 22.926 6.173-22.926 6.173-6.173 22.926-6.173-22.926-22.926-6.173 22.926-6.173 6.173-22.926z"/><path d="m165.059 303.367 13.405 3.609-13.405 3.61-3.609 13.405-3.609-13.405-13.405-3.61 13.405-3.609 3.609-13.405z"/></g><path d="m256 122.701c-2.598-1.704-5.701-2.703-9.041-2.703-8.45 0-15.406 6.351-16.385 14.538-1.348-.355-2.755-.563-4.215-.563-9.12 0-16.514 7.394-16.514 16.514 0 .872.088 1.721.218 2.556-14.53.347-26.205 12.225-26.205 26.839 0 3.63.73 7.086 2.035 10.244l11.301-.191-1.644 12.109c.02.013.038.028.057.042-4.093 5.55-6.516 12.408-6.516 19.833 0 18.476 14.978 33.454 33.454 33.454 2.305 0 4.551-.243 6.724-.688 1.775 13.183 13.062 23.349 26.731 23.349l24.78-82.943z" fill="#fd5"/><path d="m189.101 221.805c0-.554.015-1.105.042-1.652-.029.548-.047 1.098-.049 1.652zm33.564-48.564c-14.684 0-27.856 6.56-36.769 16.892 2.004 4.844 5.378 8.978 9.647 11.907 6.104-8.362 15.976-13.799 27.121-13.799z" fill="#fc0"/><g><path d="m256 122.701c2.598-1.704 5.701-2.703 9.041-2.703 8.45 0 15.406 6.351 16.385 14.538 1.348-.355 2.755-.563 4.215-.563 9.12 0 16.514 7.394 16.514 16.514 0 .872-.088 1.721-.218 2.556 14.53.347 26.205 12.225 26.205 26.839 0 3.63-.73 7.086-2.035 10.244l-11.301-.191 1.644 12.109c-.02.013-.038.028-.057.042 4.093 5.55 6.516 12.408 6.516 19.833 0 18.476-14.978 33.454-33.454 33.454-2.305 0-4.551-.243-6.724-.688-1.775 13.183-13.062 23.349-26.731 23.349z" fill="#fc0"/><path d="m322.906 221.805c-.002-.554-.021-1.105-.049-1.652.027.548.042 1.098.042 1.652zm-33.571-48.564v15c11.146 0 21.017 5.437 27.121 13.799 4.27-2.929 7.643-7.062 9.647-11.907-8.912-10.333-22.085-16.892-36.768-16.892z" fill="#ff9000"/></g><g><g><path d="m256 233.979h-7.5c0-11.113-9.041-20.154-20.154-20.154v-15c11.211 0 21.212 5.274 27.654 13.473l6.013 9.506z" fill="#fc0"/></g></g><g><g><g><path d="m263.5 233.979h-7.5v-21.681c6.441-8.199 16.443-13.473 27.654-13.473v15c-11.113.001-20.154 9.042-20.154 20.154z" fill="#ff9000"/></g></g></g></g></svg>