<svg id="Capa_1" enable-background="new 0 0 512 512" height="512" viewBox="0 0 512 512" width="512" xmlns="http://www.w3.org/2000/svg"><g><g><g><g><g><g><g><circle cx="256" cy="256" fill="#7584f2" r="256"/></g></g></g></g></g></g><path d="m344.132 109.257.127 7.922-31.753-31.753-84.117-8.426-34.186 61.644 24.153 50.424-35.596 41.525-12.77 110.414 21.228 21.228-80.659 13.508 135.787 136.079c3.204.118 6.422.178 9.654.178 134.542 0 244.843-103.79 255.204-235.67z" fill="#4253ce"/><g><path d="m255.598 57.995c-40.163 0-72.838 32.675-72.838 72.837s32.675 72.837 72.838 72.837v-30c-23.621 0-42.838-19.217-42.838-42.837s19.217-42.837 42.838-42.837c2.194 0 4.349.167 6.455.487v-30.185c-2.129-.188-4.278-.302-6.455-.302z" fill="#ff9500"/></g><path d="m344.132 109.257-15.915 15.915c-2.897-37.512-34.336-67.152-72.573-67.176v30c21.443.023 39.247 15.882 42.321 36.488l-15.227-15.227-21.213 21.213 51.91 51.91 51.91-51.909z" fill="#fe6a16"/><path d="m256 173.675c-55.696 0-101.009 45.312-101.009 101.009v8.896l-22.185-22.185-21.213 21.213 58.398 58.398 58.398-58.399-21.213-21.213-22.185 22.185v-8.896c0-39.154 31.855-71.009 71.009-71.009 2.04 0 4.055.106 6.053.276v-30.089c-2.004-.118-4.02-.186-6.053-.186z" fill="#ffce00"/><g><path d="m256 173.675c-.119 0-.237.004-.356.004v30.005c.119-.001.237-.009.356-.009 39.154 0 71.009 31.854 71.009 71.009s-31.854 71.01-71.009 71.01v30.049c55.696 0 101.009-45.362 101.009-101.058 0-55.697-45.313-101.01-101.009-101.01z" fill="#fdba12"/></g><g><path d="m110.56 345.694h146.675v30.049h-146.675z" fill="#fff"/></g><path d="m377.206 302.295-21.213 21.213 22.185 22.186h-122.534v30.048h122.533l-22.184 22.137 21.213 21.213 58.398-58.398z" fill="#e9edf5"/></g></svg>