<svg id="Capa_1" enable-background="new 0 0 512 512" height="512" viewBox="0 0 512 512" width="512" xmlns="http://www.w3.org/2000/svg"><g><g><g><g id="XMLID_00000003103761710116195350000009392034013515458177_"><circle cx="256" cy="256" fill="#38336b" r="256"/></g></g></g><path d="m512 256c0-33.104-6.284-64.739-17.723-93.78l-94.909-94.909-57.997 29.211-67.218-67.181-35.1 35.134 19.646 19.646-18.053 63.996-44.462-44.462-3.762 4.396-43.282-43.282-34.14 36.1 65.105 65.137 1.913 238.347-67.018 42.914 46.805 46.843c29.155 11.543 60.933 17.89 94.195 17.89 141.385 0 256-114.615 256-256z" fill="#2b0552"/><g><g><g><g><path d="m196.183 166.941h-30v-46.267l-41.825-24.998 15.391-25.752 56.434 33.731z" fill="#ffe564"/></g></g><ellipse cx="132.053" cy="82.8" fill="#fff" rx="24.847" ry="24.847" transform="matrix(.159 -.987 .987 .159 29.316 200.014)"/><g><g><path d="m315.817 166.941h30v-46.267l41.825-24.998-15.391-25.752-56.434 33.731z" fill="#ffb454"/></g></g><ellipse cx="379.947" cy="82.8" fill="#e5e5e5" rx="24.847" ry="24.847" transform="matrix(.987 -.16 .16 .987 -8.357 61.93)"/></g><g><g><g><path d="m196.183 345.059h-30v46.267l-41.825 24.998 15.391 25.752 56.434-33.731z" fill="#ffe564"/></g></g><ellipse cx="132.053" cy="429.2" fill="#fff" rx="24.847" ry="24.847" transform="matrix(.377 -.926 .926 .377 -315.264 389.726)"/><g><g><path d="m315.817 345.059h30v46.267l41.825 24.998-15.391 25.752-56.434-33.731z" fill="#ffb454"/></g></g><ellipse cx="379.947" cy="429.2" fill="#e5e5e5" rx="24.847" ry="24.847" transform="matrix(.924 -.383 .383 .924 -135.326 178.07)"/></g></g><g><path d="m241 57.629v396.742h15l12.423-210.921-12.423-185.821z" fill="#ffe564"/></g><path d="m256 57.629h15v396.743h-15z" fill="#ffb454"/><g><path d="m138.66 256c0 64.805 52.535 117.34 117.34 117.34l72.847-122.358-72.847-112.322c-64.805 0-117.34 52.535-117.34 117.34z" fill="#fff"/></g><path d="m256 138.66v234.68c64.805 0 117.34-52.535 117.34-117.34s-52.535-117.34-117.34-117.34z" fill="#e5e5e5"/><g><path d="m243.399 199.965-17.754.016-38.417 100.859h22.065l6.889-18.091h36.425l3.393 8.99 12.734-9.648-12.734-48.736zm-19.367 62.169 10.443-27.42 10.348 27.42z" fill="#ff3d7d"/></g><path d="m281.468 300.839-25.468-67.484v58.384l3.435 9.1z" fill="#d01273"/><path d="m287.797 199.966h21.796v100.873h-21.796z" fill="#d01273"/><g><path d="m154.515 256c0-55.959 45.526-101.485 101.485-101.485l25.468-15.294-25.468-16.377c-73.423 0-133.155 59.733-133.155 133.156s59.732 133.156 133.155 133.156l19.711-16.712-19.711-14.959c-55.959 0-101.485-45.526-101.485-101.485z" fill="#00e4ef"/></g><path d="m389.155 256c0-73.423-59.733-133.156-133.155-133.156v31.67c55.958 0 101.485 45.526 101.485 101.485s-45.527 101.486-101.485 101.486v31.671c73.423 0 133.155-59.734 133.155-133.156z" fill="#0fa7da"/><g><path d="m231.153 46.306c0 13.723 11.124 24.847 24.847 24.847l15-24.847-15-24.847c-13.723 0-24.847 11.125-24.847 24.847z" fill="#fff"/><path d="m280.847 46.306c0-13.722-11.124-24.847-24.847-24.847v49.694c13.723 0 24.847-11.124 24.847-24.847z" fill="#e5e5e5"/><path d="m231.153 465.694c0 13.723 11.124 24.847 24.847 24.847l15-24.847-15-24.847c-13.723 0-24.847 11.124-24.847 24.847z" fill="#fff"/><path d="m256 440.847v49.694c13.723 0 24.847-11.125 24.847-24.847 0-13.723-11.124-24.847-24.847-24.847z" fill="#e5e5e5"/></g></g></svg>