<?xml version="1.0" encoding="iso-8859-1"?>
<!-- Generator: Adobe Illustrator 21.0.0, SVG Export Plug-In . SVG Version: 6.00 Build 0)  -->
<svg xmlns="http://www.w3.org/2000/svg" xmlns:xlink="http://www.w3.org/1999/xlink" version="1.1" id="Capa_1" x="0px" y="0px" viewBox="0 0 512 512" style="enable-background:new 0 0 512 512;" xml:space="preserve" width="512" height="512">
<g>
	<g>
		<g>
			<g>
				<g>
					<g>
						<circle style="fill:#06CCAB;" cx="256" cy="256" r="256"/>
					</g>
				</g>
			</g>
		</g>
	</g>
	<path style="fill:#11A892;" d="M512,256c0-1.166-0.029-2.324-0.044-3.486l-74.628-74.628L89.76,348.408l56.282,56.282   l-16.357,23.484l79.551,79.551C224.399,510.523,240.027,512,256,512C397.385,512,512,397.385,512,256z"/>
	<path style="fill:#FFFFFF;" d="M289.839,196.43H142.852c-47.09,0-85.265,38.174-85.265,85.265v0   c0,42.612,31.26,77.919,72.098,84.25v62.228l61.214-61.213h98.94c47.09,0,85.265-38.174,85.265-85.265v0   C375.103,234.604,336.929,196.43,289.839,196.43z"/>
	<path style="fill:#DCE1EB;" d="M289.839,196.43h-77.505v170.53h77.505c47.09,0,85.265-38.174,85.265-85.265v0   C375.103,234.604,336.929,196.43,289.839,196.43z"/>
	<path style="fill:#555A66;" d="M222.161,143.827h146.987c47.09,0,85.265,38.174,85.265,85.265v0   c0,42.612-31.26,77.919-72.098,84.25v62.228l-61.214-61.213h-98.94c-47.09,0-85.265-38.174-85.265-85.265v0   C136.897,182.001,175.071,143.827,222.161,143.827z"/>
	<path style="fill:#414952;" d="M369.148,143.827h-73.493v170.53h25.446l61.214,61.213v-62.228   c40.838-6.331,72.098-41.638,72.098-84.25v0C454.413,182.001,416.239,143.827,369.148,143.827z"/>
	<circle style="fill:#FFFFFF;" cx="295.655" cy="229" r="21"/>
	<path style="fill:#DCE1EB;" d="M295.655,208c11.598,0,21,9.402,21,21s-9.402,21-21,21V208z"/>
	<g>
		<circle style="fill:#FFFFFF;" cx="207.494" cy="229" r="21"/>
		<circle style="fill:#DCE1EB;" cx="383.816" cy="229" r="21"/>
	</g>
</g>















</svg>
