<svg id="Capa_1" enable-background="new 0 0 512 512" height="512" viewBox="0 0 512 512" width="512" xmlns="http://www.w3.org/2000/svg"><circle cx="256" cy="256" fill="#ff475a" r="256"/><path d="m512 256c0-27.298-4.273-53.598-12.186-78.268l-70.537-70.537-344.972 236.646 168.135 168.135c1.185.016 2.372.024 3.561.024 141.384 0 255.999-114.615 255.999-256z" fill="#d1093a"/><path d="m328.333 415.322h-144.666l19-79.655h105.666z" fill="#e9edf5"/><path d="m308.333 335.667h-52.333v79.655h72.333z" fill="#cdd2e1"/><path d="m409.309 351.825h-306.618c-13.908 0-25.182-11.274-25.182-25.182v-204.112c0-13.908 11.274-25.182 25.182-25.182h306.618c13.908 0 25.182 11.274 25.182 25.182v204.112c0 13.908-11.274 25.182-25.182 25.182z" fill="#fff"/><path d="m409.309 97.349h-153.309v254.477h153.309c13.908 0 25.182-11.275 25.182-25.183v-204.112c0-13.908-11.274-25.182-25.182-25.182z" fill="#e9edf5"/><path d="m99.258 119.154h313.484v166.997h-313.484z" fill="#555a66"/><path d="m256 119.154h156.742v166.997h-156.742z" fill="#333940"/><path d="m213.603 201.639 42.396 23.42 42.397-23.419v-52.46h-84.792z" fill="#fcaf03"/><path d="m256 149.18h-42.396l-.001 52.459 42.396 23.42z" fill="#ffd400"/><path d="m256 172.6-42.396-23.42 42.396-23.419 42.396 23.419z" fill="#ffe578"/><path d="m256 125.761v46.839l42.396-23.419z" fill="#f9dd64"/><circle cx="256" cy="313.667" fill="#dce1eb" r="15"/><path d="m256 298.667v30c8.284 0 15-6.715 15-15s-6.716-15-15-15z" fill="#bec3d2"/><path d="m356.942 269.437h-201.884c-10.182 0-18.437-8.254-18.437-18.437 0-10.182 8.254-18.437 18.437-18.437h201.884c10.182 0 18.437 8.254 18.437 18.437 0 10.182-8.255 18.437-18.437 18.437z" fill="#80dbff"/><path d="m155.058 232.563c-10.182 0-18.437 8.254-18.437 18.437 0 10.183 8.254 18.437 18.437 18.437h141.042v-36.874z" fill="#4ab8f7"/><path d="m256 232.563h40.1v36.874h-40.1z" fill="#368dcf"/></svg>